#!OML:ASF E:/inclinewalkrobotboard/Project1/Captureday1/Session1/subject1.ASF
:FULLY-SPECIFIED
:DEGREES
13
root 0 0 0 13.149963227936997 4.667089892277205 -4.828215510534186
lowerback 13.699999948703653 3.3459064430463332 0.49756217891269816
upperback -4.538336210155091 3.8996827225620905 -2.7661663381911277
thorax -12.054624363577208 1.7688284738427802 -3.9195824230549374
lowerneck -11.892412691981395 9.016499389483643 16.997716150430993
upperneck 34.93168941790772 9.182224246592204 -5.234506314033898
head 14.97297635082731 5.977202990039821 -3.6495334364689103
rclavicle 5.101412176143394E-15 1.053113632472869E-14
rhumerus -4.066420209900302 12.305350494273233 -78.08723266090563
rradius 36.251356630554504
rwrist -9.800190424983336
rhand -25.546218546115913 -20.129297853546817
rfingers 7.125019999999955
rthumb 0.9946459554109435 -50.63537406647526
lclavicle -1.4298075822557488E-15 3.9125549886268345E-15
lhumerus -46.857162288343424 11.441003726507503 71.18774244967253
lradius 57.97565350068853
lwrist -10.238880207243678
lhand -17.51725349059463 17.382220449353227
lfingers 7.1250199999998625
lthumb 8.747250451370704 46.836620922793536
rfemur -1.7928492264655675 19.922116564815667 35.033590011656706
rtibia -8.763137072749565
rfoot 6.148858364144928 -28.58633953316417
rtoes -52.3528943385998
lfemur -5.720010336338383 -35.10454260771169 -24.859379216794522
ltibia -9.083121626366172
lfoot -41.64663516954222 5.805319578336359
ltoes -26.62119530495804
14
root 0 0 0 13.177574647867955 4.711162262151723 -4.827799467222841
lowerback 13.732681516650004 3.348521033243702 0.5205124407680849
upperback -4.528526422483869 3.903240610138814 -2.763676143141625
thorax -12.06176496492294 1.7692205269937915 -3.929828580976763
lowerneck -11.90085936431166 9.010127742155776 16.994388954178163
upperneck 34.88558890995267 9.171738939048648 -5.224608254522856
head 14.960012676851601 5.9725123183758555 -3.6464742090440394
rclavicle 5.277172966874617E-15 1.0591425345418196E-14
rhumerus -4.006782192646298 12.154354351666349 -77.90224281069273
rradius 36.18453220002767
rwrist -9.829598684172396
rhand -25.582358513107867 -20.242051216721062
rfingers 7.125019999999955
rthumb 0.9601098827048133 -50.75106522556458
lclavicle -1.159575271133668E-15 3.962689593392437E-15
lhumerus -46.590477288024694 11.567883703092939 70.96660003997744
lradius 58.08212601638771
lwrist -10.393143013268208
lhand -17.649496988999537 17.29842017734896
lfingers 7.12501999999986
lthumb 8.619574362574665 46.75878021159497
rfemur -2.110048179028392 20.023944295487283 35.03978988299754
rtibia -8.631071881959627
rfoot 5.946237387331735 -28.54543516543305
rtoes -52.17320433017006
lfemur -5.990757618205954 -34.71356083233781 -24.892047233734566
ltibia -8.648155564355022
lfoot -41.16630011391463 5.512457769670262
ltoes -27.121927169592738
15
root 0 0 0 13.19268759694281 4.739319385128264 -4.826205572043944
lowerback 13.762142234070893 3.348942912742695 0.5334701210904175
upperback -4.521153768201293 3.903481476471288 -2.7604141346871547
thorax -12.068923141338725 1.7687680913729014 -3.932740676718938
lowerneck -11.901234599559992 9.007526397704769 16.994337921697205
upperneck 34.86210064616494 9.168081912406267 -5.223498773118379
head 14.953664112681702 5.970556322869117 -3.646426197199551
rclavicle 5.389219775117983E-15 1.0638674808237015E-14
rhumerus -3.9703268175128468 12.043593439408824 -77.76215640857981
rradius 36.17719797190578
rwrist -9.863404765876108
rhand -25.608218919380416 -20.322316369302218
rfingers 7.125019999999956
rthumb 0.9354737449051829 -50.83351136753429
lclavicle -9.535458736770442E-16 4.00908355018391E-15
lhumerus -46.38912693438652 11.676563412178993 70.79294724269829
lradius 58.15447541458707
lwrist -10.509671015606223
lhand -17.741335217141774 17.234737976877174
lfingers 7.125019999999859
lthumb 8.530972643221055 46.699133440003486
rfemur -2.4116757535237787 20.1194582509097 35.042273743295866
rtibia -8.505340105287374
rfoot 5.754721053691114 -28.507304136745883
rtoes -52.002280065730325
lfemur -6.258614753666585 -34.31068936494057 -24.931125263920308
ltibia -8.198864201626236
lfoot -40.66816194779461 5.217222547988227
ltoes -27.640577982869548
16
root 0 0 0 13.196468026467302 4.767635244938976 -4.8219673755922035
lowerback 13.787026676634639 3.350671011550089 0.539747897175675
upperback -4.515628864820778 3.9055765252253813 -2.755916598765179
thorax -12.075246697939853 1.769748724071757 -3.9307634603781234
lowerneck -11.896670952484008 9.003010089121215 16.99151933607338
upperneck 34.85943224288589 9.163391419319453 -5.2272344087762725
head 14.95338274091276 5.967517607819283 -3.6479090346836975
rclavicle 5.479036191406878E-15 1.0681547422846339E-14
rhumerus -3.9357682078629344 11.953730888734537 -77.64688352988158
rradius 36.18756629950158
rwrist -9.895496009213645
rhand -25.63151774407207 -20.385632867326734
rfingers 7.125019999999956
rthumb 0.9132775561055695 -50.89879659689338
lclavicle -7.819085696597871E-16 4.058902799253732E-15
lhumerus -46.24046474507195 11.779486586550014 70.6522102124063
lradius 58.19567654413126
lwrist -10.598793939392689
lhand -17.801159021801165 17.18659341497896
lfingers 7.125019999999858
lthumb 8.473268745474428 46.65346503513193
rfemur -2.700347705409312 20.20726240715956 35.04168816981421
rtibia -8.381379528701618
rfoot 5.572648332462212 -28.47017603905759
rtoes -51.835615867881465
lfemur -6.532291846976335 -33.89271923455285 -24.974906099168802
ltibia -7.730451686485694
lfoot -40.14805420820221 4.915188373068137
ltoes -28.18216818940001
